<svg width="96" height="91" viewBox="0 0 96 91" fill="none" xmlns="http://www.w3.org/2000/svg">
<g filter="url(#filter0_i_7_418)">
<path fill-rule="evenodd" clip-rule="evenodd" d="M4 10.7608C4 8.91253 4.77458 7.13991 6.15335 5.83295C7.53212 4.526 9.40213 3.79176 11.352 3.79176H84.64C85.6063 3.79026 86.5634 3.96945 87.4566 4.31905C88.3497 4.66866 89.1614 5.18182 89.845 5.82916C90.5287 6.4765 91.0709 7.2453 91.4407 8.09155C91.8105 8.93779 92.0005 9.84487 92 10.7608V80.2318C92.0011 81.1479 91.8115 82.0553 91.4423 82.9019C91.073 83.7486 90.5313 84.5179 89.8481 85.1659C89.1649 85.8139 88.3535 86.3278 87.4606 86.6783C86.5676 87.0288 85.6105 87.2089 84.644 87.2084H11.352C10.3862 87.2084 9.42984 87.028 8.53759 86.6776C7.64534 86.3271 6.83469 85.8134 6.15194 85.1659C5.46919 84.5184 4.92773 83.7496 4.55849 82.9037C4.18925 82.0577 3.99948 81.1511 4 80.2355V10.7608ZM38.832 35.5963H50.748V41.2686C52.468 38.0078 56.868 35.073 63.48 35.073C76.156 35.073 79.16 41.5681 79.16 53.4853V75.5604H66.332V56.2002C66.332 49.4131 64.612 45.5835 60.244 45.5835C54.184 45.5835 51.664 49.7126 51.664 56.2002V75.5604H38.832V35.5963ZM16.832 75.041H29.664V35.073H16.832V75.0372V75.041ZM31.5 22.0373C31.5242 23.0787 31.3287 24.1143 30.925 25.0832C30.5212 26.052 29.9174 26.9347 29.1489 27.6794C28.3805 28.4241 27.4628 29.0157 26.4498 29.4197C25.4368 29.8236 24.349 30.0317 23.25 30.0317C22.151 30.0317 21.0632 29.8236 20.0502 29.4197C19.0372 29.0157 18.1196 28.4241 17.3511 27.6794C16.5826 26.9347 15.9788 26.052 15.575 25.0832C15.1713 24.1143 14.9758 23.0787 15 22.0373C15.0475 19.993 15.9375 18.0476 17.4795 16.6178C19.0215 15.1879 21.0929 14.3873 23.25 14.3873C25.4071 14.3873 27.4785 15.1879 29.0205 16.6178C30.5625 18.0476 31.4525 19.993 31.5 22.0373Z" fill="#5B7DF5"/>
</g>
<defs>
<filter id="filter0_i_7_418" x="0" y="0" width="96" height="95" filterUnits="userSpaceOnUse" color-interpolation-filters="sRGB">
<feFlood flood-opacity="0" result="BackgroundImageFix"/>
<feBlend mode="normal" in="SourceGraphic" in2="BackgroundImageFix" result="shape"/>
<feColorMatrix in="SourceAlpha" type="matrix" values="0 0 0 0 0 0 0 0 0 0 0 0 0 0 0 0 0 0 127 0" result="hardAlpha"/>
<feOffset dy="4"/>
<feGaussianBlur stdDeviation="7.5"/>
<feComposite in2="hardAlpha" operator="arithmetic" k2="-1" k3="1"/>
<feColorMatrix type="matrix" values="0 0 0 0 0 0 0 0 0 0 0 0 0 0 0 0 0 0 0.2 0"/>
<feBlend mode="normal" in2="shape" result="effect1_innerShadow_7_418"/>
</filter>
</defs>
</svg>
