<svg width="96" height="91" viewBox="0 0 96 91" fill="none" xmlns="http://www.w3.org/2000/svg">
<g filter="url(#filter0_i_7_480)">
<path fill-rule="evenodd" clip-rule="evenodd" d="M29.86 4.042C34.552 3.83725 36.048 3.79175 48 3.79175C59.952 3.79175 61.448 3.84104 66.136 4.042C70.824 4.24296 74.024 4.952 76.824 5.97954C79.756 7.02983 82.416 8.67162 84.616 10.795C86.856 12.8766 88.584 15.3942 89.688 18.1773C90.776 20.8315 91.52 23.8648 91.736 28.3011C91.952 32.7563 92 34.1744 92 45.5001C92 56.8296 91.948 58.2477 91.736 62.6953C91.524 67.1315 90.776 70.1649 89.688 72.819C88.584 75.6025 86.8531 78.1243 84.616 80.209C82.416 82.3323 79.756 83.9703 76.824 85.0168C74.024 86.0482 70.824 86.7534 66.144 86.9582C61.448 87.1629 59.952 87.2084 48 87.2084C36.048 87.2084 34.552 87.1591 29.86 86.9582C25.18 86.7572 21.98 86.0482 19.18 85.0168C16.2437 83.9702 13.5833 82.3295 11.384 80.209C9.14552 78.1261 7.41326 75.6055 6.308 72.8228C5.224 70.1687 4.48 67.1353 4.264 62.6991C4.048 58.2439 4 56.8258 4 45.5001C4 34.1706 4.052 32.7525 4.264 28.3087C4.476 23.8648 5.224 20.8315 6.308 18.1773C7.41489 15.3946 9.14847 12.874 11.388 10.7912C13.5842 8.66973 16.2419 7.02772 19.176 5.97954C21.976 4.952 25.176 4.24675 29.856 4.042H29.86ZM65.78 11.5495C61.14 11.3485 59.748 11.3068 48 11.3068C36.252 11.3068 34.86 11.3485 30.22 11.5495C25.928 11.7353 23.6 12.414 22.048 12.9865C19.996 13.7449 18.528 14.6435 16.988 16.1033C15.5282 17.4495 14.4047 19.0884 13.7 20.8997C13.096 22.3709 12.38 24.5777 12.184 28.6461C11.972 33.0445 11.928 34.364 11.928 45.5001C11.928 56.6362 11.972 57.9557 12.184 62.354C12.38 66.4225 13.096 68.6292 13.7 70.1004C14.404 71.909 15.528 73.5508 16.988 74.8969C18.408 76.2808 20.14 77.3463 22.048 78.0136C23.6 78.5862 25.928 79.2649 30.22 79.4507C34.86 79.6516 36.248 79.6933 48 79.6933C59.752 79.6933 61.14 79.6516 65.78 79.4507C70.072 79.2649 72.4 78.5862 73.952 78.0136C76.004 77.2553 77.472 76.3567 79.012 74.8969C80.472 73.5508 81.596 71.909 82.3 70.1004C82.904 68.6292 83.62 66.4225 83.816 62.354C84.028 57.9557 84.072 56.6362 84.072 45.5001C84.072 34.364 84.028 33.0445 83.816 28.6461C83.62 24.5777 82.904 22.3709 82.3 20.8997C81.5 18.9546 80.552 17.5631 79.012 16.1033C77.5917 14.7196 75.8628 13.6547 73.952 12.9865C72.4 12.414 70.072 11.7353 65.78 11.5495ZM42.38 58.3576C45.5186 59.5961 49.0135 59.7632 52.2677 58.8305C55.5219 57.8978 58.3336 55.9231 60.2224 53.2436C62.1113 50.5641 62.9602 47.3461 62.6242 44.1393C62.2882 40.9324 60.788 37.9356 58.38 35.6607C56.8449 34.2065 54.9888 33.093 52.9453 32.4004C50.9018 31.7078 48.7217 31.4533 46.562 31.6552C44.4022 31.8572 42.3166 32.5105 40.4552 33.5682C38.5938 34.6259 37.003 36.0617 35.7972 37.7721C34.5914 39.4825 33.8008 41.4251 33.4821 43.46C33.1634 45.4949 33.3246 47.5714 33.9542 49.5402C34.5837 51.5089 35.6659 53.3208 37.1229 54.8455C38.5798 56.3702 40.3753 57.5697 42.38 58.3576ZM32.008 30.341C34.1081 28.3503 36.6013 26.7712 39.3452 25.6938C42.0891 24.6164 45.03 24.0619 48 24.0619C50.97 24.0619 53.9109 24.6164 56.6548 25.6938C59.3987 26.7712 61.8919 28.3503 63.992 30.341C66.0921 32.3317 67.758 34.695 68.8946 37.296C70.0311 39.897 70.6161 42.6848 70.6161 45.5001C70.6161 48.3154 70.0311 51.1031 68.8946 53.7041C67.758 56.3051 66.0921 58.6684 63.992 60.6592C59.7507 64.6796 53.9982 66.9383 48 66.9383C42.0018 66.9383 36.2493 64.6796 32.008 60.6592C27.7667 56.6387 25.3839 51.1858 25.3839 45.5001C25.3839 39.8143 27.7667 34.3614 32.008 30.341ZM75.632 27.2546C76.1524 26.7892 76.569 26.2296 76.8572 25.6089C77.1454 24.9882 77.2992 24.319 77.3097 23.6409C77.3201 22.9628 77.1869 22.2896 76.9179 21.6612C76.649 21.0327 76.2497 20.4618 75.7438 19.9823C75.238 19.5028 74.6357 19.1243 73.9728 18.8694C73.3098 18.6144 72.5996 18.4882 71.8843 18.498C71.1689 18.5079 70.4629 18.6538 69.8081 18.9269C69.1533 19.2001 68.5629 19.595 68.072 20.0883C67.1172 21.0477 66.5945 22.3221 66.6148 23.6409C66.6351 24.9596 67.1968 26.219 68.1806 27.1516C69.1645 28.0842 70.493 28.6167 71.8843 28.6359C73.2755 28.6551 74.6199 28.1596 75.632 27.2546Z" fill="#5B7DF5"/>
</g>
<defs>
<filter id="filter0_i_7_480" x="0" y="0" width="96" height="95" filterUnits="userSpaceOnUse" color-interpolation-filters="sRGB">
<feFlood flood-opacity="0" result="BackgroundImageFix"/>
<feBlend mode="normal" in="SourceGraphic" in2="BackgroundImageFix" result="shape"/>
<feColorMatrix in="SourceAlpha" type="matrix" values="0 0 0 0 0 0 0 0 0 0 0 0 0 0 0 0 0 0 127 0" result="hardAlpha"/>
<feOffset dy="4"/>
<feGaussianBlur stdDeviation="7.5"/>
<feComposite in2="hardAlpha" operator="arithmetic" k2="-1" k3="1"/>
<feColorMatrix type="matrix" values="0 0 0 0 0 0 0 0 0 0 0 0 0 0 0 0 0 0 0.2 0"/>
<feBlend mode="normal" in2="shape" result="effect1_innerShadow_7_480"/>
</filter>
</defs>
</svg>
